<?xml version="1.0" encoding="utf-8"?>
<!-- Generator: Adobe Illustrator 25.0.0, SVG Export Plug-In . SVG Version: 6.00 Build 0)  -->
<svg version="1.1" id="Capa_1" xmlns="http://www.w3.org/2000/svg" xmlns:xlink="http://www.w3.org/1999/xlink" x="0px" y="0px"
	 viewBox="0 0 560 288" style="enable-background:new 0 0 560 288;" xml:space="preserve">
<style type="text/css">
	.st0{fill:#454545;}
</style>
<g>
	<path class="st0" d="M356.75,72.43c11.34,0.61,19.6,3.77,24.93,12.25c2.86,4.56,4.06,9.55,2.23,14.91
		c-0.37,1.07-0.46,2.25-0.85,3.3c-2.88,7.63-0.96,14.13,4.37,20c2.24,2.46,4.21,5.17,6.22,7.83c8.4,11.09,1.07,28.01-9.42,32.85
		c-11.09,5.12-21.56,3.35-31.6-2.77c-2.41-1.47-4.54-3.44-6.66-5.32c-1.11-0.99-2-1.22-3.45-0.69c-11.06,4.02-21.6,3.07-31.34-3.8
		c-10.21-7.2-13.55-20.01-8.31-31.2c2.8-5.98,8.12-8.87,13.68-11.55c3.59-1.73,7.11-3.59,10.69-5.33c1.57-0.76,2.08-1.89,2.29-3.63
		c1.33-11.26,6.11-20.27,17.31-24.46C350.5,73.46,354.5,72.96,356.75,72.43z"/>
	<path class="st0" d="M207.03,177.75c5.99,0.09,12.2,2.5,16.96,8.25c2.21,2.67,3.35,5.71,3.79,9.09c0.15,1.13,0.39,2.25,0.48,3.38
		c0.55,7.29,4.36,12.21,10.9,15.23c2.95,1.36,5.82,2.9,8.72,4.38c8.82,4.5,11.86,12.15,11.3,21.48
		c-0.7,11.57-9.37,20.56-21.91,23.23c-6.95,1.48-13.77,0.98-20.4-1.41c-2.06-0.74-3.35-0.45-4.92,1.08
		c-6.6,6.42-14.6,9.62-23.81,9.56c-15.08-0.09-26.34-11.46-26.05-26.13c0.11-5.66,3-10.01,6.37-14.17
		c3.02-3.73,6.13-7.39,8.99-11.23c0.63-0.84,0.85-2.48,0.5-3.48C169.76,193.78,187.93,177.65,207.03,177.75z"/>
	<path class="st0" d="M330.44,72.14c-1.02,11.88-4.08,22.42-12.83,30.62c-8.36,7.83-20.15,3.82-23.86-6.22
		c-4.88-13.22-0.47-31.71,9.37-40.28c7.8-6.79,23.14-5.37,26.27,8.53C329.96,67.32,330.14,69.93,330.44,72.14z"/>
	<path class="st0" d="M171.65,210.22c-0.36,6.12-1.29,11.9-4.61,17.12c-3.91,6.16-11.75,8.23-18.19,4.83
		c-6.3-3.32-9.8-8.92-12.23-15.26c-3.53-9.24-4.47-18.67-0.69-28.07c4.16-10.35,19.47-15.22,27.82-3.29
		c2.51,3.59,4.37,7.81,5.7,12.01C170.73,201.61,170.96,205.99,171.65,210.22z"/>
	<path class="st0" d="M230.82,184.14c0.02-7.58,0.91-12.68,3.94-17.15c6.43-9.46,19.51-9.97,26.03-0.62
		c8.32,11.93,9.94,25.2,5.04,38.82c-3.9,10.85-16.33,12.95-24.58,4.52C233.71,202.01,231.24,192.29,230.82,184.14z"/>
	<path class="st0" d="M387.98,108.83c0.5-11.16,2.82-20.23,9.43-27.76c6.78-7.72,18.94-8.09,24.96-0.77
		c3.03,3.69,4.05,8.11,4.12,12.76c0.18,11.85-3.15,22.52-11.35,31.28c-9.4,10.04-22.2,4.86-25.55-6.83
		C388.66,114.26,388.34,110.84,387.98,108.83z"/>
	<path class="st0" d="M152.47,152.24c0.66-3.49,1.13-7.02,2.01-10.45c2.61-10.17,17.91-17.1,27.3-5.35
		c9.03,11.29,11.57,24.35,6.78,38.08c-4.09,11.71-17.84,14.02-26.16,4.77C155.54,171.65,153,162.4,152.47,152.24z"/>
	<path class="st0" d="M367.5,35.45c-0.5,12.18-3.02,21.96-10.67,29.69c-8.56,8.65-21.2,6.03-25.68-5.3
		c-3.37-8.52-2.29-17.09,0.44-25.55c1.64-5.08,4.13-9.68,7.93-13.54c7.42-7.53,21.7-6.36,25.87,5.14
		C366.67,29.42,367.04,33.28,367.5,35.45z"/>
	<path class="st0" d="M232.68,154.25c-0.02,5.11-0.72,10.03-3.26,14.59c-4.66,8.34-14.74,10.37-22.31,4.41
		c-6.48-5.1-9.56-12.21-11.41-19.91c-1.41-5.89-1.61-11.89-0.06-17.86c1.75-6.76,5.98-11.14,12.74-12.73
		c6.43-1.52,11.72,0.84,15.76,5.88C230.12,136.1,232.53,144.81,232.68,154.25z"/>
	<path class="st0" d="M408.92,45.71c-0.07,11.14-2.63,20.3-9.2,27.82c-9.35,10.72-22.92,8.26-27.13-5.31
		c-4.19-13.51-1.44-26.27,7.96-37.11c4.4-5.07,10.35-6.23,16.72-4.52c6.37,1.71,9.46,6.54,10.85,12.59
		C408.69,41.7,408.76,44.33,408.92,45.71z"/>
</g>
</svg>
